<?xml version="1.0" standalone="no"?>
<!DOCTYPE svg PUBLIC "-//W3C//DTD SVG 20010904//EN"
 "http://www.w3.org/TR/2001/REC-SVG-20010904/DTD/svg10.dtd">
<svg version="1.0" xmlns="http://www.w3.org/2000/svg"
 width="1336.000000pt" height="1336.000000pt" viewBox="0 0 1336.000000 1336.000000"
 preserveAspectRatio="xMidYMid meet">
<metadata>
Created by potrace 1.11, written by Peter Selinger 2001-2013
</metadata>
<g transform="translate(0.000000,1336.000000) scale(0.100000,-0.100000)"
fill="#000000" stroke="none">
<path d="M4405 10990 c-16 -10 -52 -31 -80 -45 -27 -15 -57 -33 -65 -40 -8 -7
-25 -16 -37 -19 -13 -4 -23 -12 -23 -17 0 -5 -5 -9 -11 -9 -6 0 -24 -9 -40
-21 -16 -11 -29 -17 -29 -12 0 4 -4 3 -8 -3 -4 -6 -27 -22 -50 -35 -24 -13
-56 -31 -70 -39 -46 -27 -196 -114 -217 -127 -11 -7 -27 -15 -35 -19 -8 -4
-17 -10 -20 -13 -3 -4 -23 -15 -45 -26 -22 -11 -42 -23 -45 -26 -4 -5 -111
-68 -248 -145 -20 -12 -77 -44 -125 -73 -49 -28 -93 -51 -98 -51 -5 0 -9 -4
-9 -10 0 -5 -11 -12 -25 -16 -14 -3 -25 -10 -25 -14 0 -4 -8 -10 -17 -14 -19
-6 -44 -20 -131 -73 -29 -18 -57 -33 -62 -33 -6 0 -10 -4 -10 -10 0 -5 -5 -10
-11 -10 -6 0 -48 -22 -93 -49 -44 -27 -98 -58 -118 -70 -75 -42 -107 -60 -145
-83 -21 -13 -48 -28 -58 -34 -20 -11 -20 -30 -23 -1158 -2 -1015 0 -1146 13
-1146 8 0 15 -4 15 -10 0 -5 4 -10 9 -10 7 0 256 -140 301 -170 8 -6 26 -16
40 -22 14 -7 27 -16 30 -20 3 -4 17 -12 30 -18 14 -6 43 -22 65 -35 22 -14 49
-29 60 -35 11 -6 36 -20 55 -32 19 -11 55 -32 79 -45 24 -14 135 -78 247 -144
112 -65 209 -119 214 -119 6 0 10 -4 10 -9 0 -5 8 -11 18 -14 9 -4 40 -20 67
-37 28 -17 59 -35 70 -40 11 -6 27 -14 35 -20 25 -17 204 -120 290 -168 25
-13 50 -28 55 -32 6 -4 30 -19 55 -32 96 -53 126 -71 152 -90 30 -21 88 -32
88 -17 0 5 5 9 11 9 5 0 57 27 114 60 57 33 109 60 114 60 6 0 11 4 11 8 0 5
16 14 35 22 19 8 35 16 35 19 0 3 20 15 45 26 25 11 45 23 45 28 0 4 4 6 9 2
5 -3 12 -1 15 4 3 5 27 20 53 34 27 13 64 34 83 46 19 11 42 24 50 28 8 4 37
19 63 35 27 15 78 44 115 64 69 38 151 83 212 117 19 11 55 31 80 45 25 14 75
42 112 63 36 22 69 39 73 39 4 0 13 7 22 15 8 8 19 13 24 10 5 -4 9 -1 9 4 0
6 5 11 10 11 6 0 27 10 48 23 20 13 71 41 112 63 41 21 77 42 80 45 3 3 34 22
70 41 36 19 97 52 135 74 39 21 108 59 153 84 l82 45 0 1142 0 1142 -62 37
c-35 20 -77 45 -95 55 -142 80 -249 145 -251 151 -2 5 -8 8 -13 8 -6 0 -87 45
-180 100 -94 55 -175 100 -180 100 -5 0 -9 5 -9 10 0 6 -4 10 -9 10 -5 0 -47
22 -93 50 -45 27 -95 55 -110 61 -16 6 -28 15 -28 20 0 5 -5 9 -11 9 -13 0
-133 72 -137 83 -2 4 -12 7 -22 7 -10 0 -21 4 -24 9 -3 4 -47 32 -98 61 -51
29 -126 73 -165 97 -40 23 -75 43 -78 43 -2 0 -28 15 -58 33 -29 17 -61 37
-72 44 -41 25 -309 178 -314 180 -3 1 -19 -7 -36 -17z"/>
<path d="M8860 10907 c-97 -57 -182 -107 -190 -111 -8 -4 -24 -12 -35 -19
-107 -65 -199 -117 -206 -117 -5 0 -9 -4 -9 -10 0 -5 -4 -10 -9 -10 -13 0
-134 -71 -142 -83 -3 -5 -8 -7 -10 -5 -4 3 -156 -82 -201 -113 -15 -11 -29
-19 -32 -19 -6 0 -130 -73 -136 -80 -3 -3 -20 -12 -37 -19 -18 -8 -33 -17 -33
-22 0 -5 -4 -9 -9 -9 -5 0 -47 -22 -93 -48 -46 -27 -166 -97 -268 -156 -102
-60 -221 -129 -265 -154 -44 -25 -83 -50 -86 -55 -3 -5 -8 -7 -10 -5 -3 1 -17
-6 -33 -18 l-28 -20 0 -1120 c1 -615 1 -1128 1 -1140 1 -12 12 -26 29 -35 15
-7 45 -25 67 -39 22 -14 51 -31 65 -38 14 -6 32 -16 40 -22 40 -27 293 -170
301 -170 5 0 9 -4 9 -8 0 -5 16 -14 35 -22 19 -8 35 -17 35 -22 0 -4 5 -8 10
-8 6 0 40 -18 76 -40 36 -22 67 -40 69 -40 2 0 33 -18 69 -40 36 -22 70 -40
76 -40 5 0 10 -4 10 -8 0 -5 16 -14 35 -22 19 -8 35 -17 35 -21 0 -4 8 -9 18
-12 9 -4 35 -17 57 -30 110 -66 131 -78 148 -84 9 -3 17 -9 17 -14 0 -5 4 -9
9 -9 5 0 64 -32 132 -71 68 -40 144 -83 169 -97 25 -14 69 -40 98 -59 29 -18
55 -33 57 -33 3 0 71 -38 151 -85 154 -91 157 -92 219 -55 37 22 97 56 150 85
22 12 57 32 77 43 21 12 68 38 105 58 37 20 73 40 78 44 6 5 46 27 90 50 44
24 87 49 97 57 9 8 23 15 31 17 8 1 21 7 28 12 8 6 46 28 84 49 39 21 76 42
83 47 6 6 12 7 12 2 0 -5 4 -4 8 2 4 6 34 25 67 43 33 18 83 46 110 61 28 15
67 37 88 48 53 31 94 54 162 92 33 18 78 43 100 55 22 13 135 75 250 140 116
65 239 133 275 152 36 19 70 39 76 44 8 7 11 316 10 1150 l-1 1141 -40 23
c-22 12 -80 46 -130 75 -49 29 -103 60 -120 70 -16 9 -64 37 -105 62 -41 24
-82 47 -90 51 -8 4 -28 16 -45 26 -16 10 -58 35 -92 55 -35 20 -91 52 -125 72
-35 21 -76 44 -91 53 -16 9 -36 21 -45 26 -9 6 -63 37 -120 70 -57 33 -120 70
-140 82 -20 12 -48 28 -62 35 -14 7 -43 25 -65 39 -22 14 -55 32 -72 40 -18 8
-33 17 -33 21 0 5 -7 8 -15 8 -8 0 -15 5 -15 10 0 6 -5 10 -11 10 -6 0 -56 27
-111 60 -54 33 -101 60 -104 60 -3 0 -25 13 -48 30 -24 16 -46 26 -50 23 -3
-4 -6 -1 -6 5 0 7 -6 12 -13 12 -8 0 -33 14 -55 30 -23 17 -44 30 -47 30 -2 0
-39 20 -81 45 -41 25 -76 45 -77 45 -1 0 -81 -47 -177 -103z"/>
<path d="M1995 6987 c-11 -7 -43 -27 -72 -44 -30 -18 -55 -33 -57 -33 -2 0
-66 -37 -142 -81 -76 -45 -159 -93 -184 -107 -25 -13 -52 -30 -60 -36 -8 -6
-33 -21 -55 -33 -22 -11 -54 -29 -71 -40 -18 -10 -58 -33 -90 -52 -33 -19 -90
-53 -129 -76 -38 -23 -77 -45 -85 -48 -8 -4 -33 -18 -55 -32 -22 -14 -58 -35
-79 -46 -22 -12 -46 -28 -54 -35 -7 -8 -18 -14 -23 -14 -5 0 -28 -12 -52 -27
-23 -15 -44 -28 -47 -28 -3 0 -16 -8 -30 -16 -71 -45 -131 -79 -140 -79 -6 0
-10 -4 -10 -10 0 -5 -4 -10 -9 -10 -13 0 -155 -82 -159 -92 -2 -4 -12 -8 -22
-8 -10 0 -20 -4 -22 -8 -1 -5 -49 -35 -106 -66 -56 -32 -105 -62 -108 -67 -3
-5 -10 -7 -15 -4 -5 4 -9 1 -9 -4 0 -6 -6 -11 -14 -11 -8 0 -16 -3 -18 -7 -1
-5 -16 -15 -33 -23 l-30 -16 -3 -1141 c-2 -905 1 -1143 10 -1151 7 -5 29 -19
48 -30 19 -10 91 -52 160 -92 69 -40 166 -95 215 -123 50 -28 91 -55 93 -59 2
-5 8 -8 14 -8 6 0 44 -20 85 -45 40 -25 76 -45 78 -45 4 0 72 -40 130 -78 11
-6 27 -15 35 -19 8 -4 48 -26 88 -50 41 -24 78 -43 83 -43 5 0 9 -4 9 -10 0
-5 4 -10 9 -10 5 0 44 -20 85 -45 42 -25 79 -45 82 -45 3 0 30 -16 60 -35 30
-19 59 -35 64 -35 6 0 10 -3 10 -8 0 -4 15 -13 33 -21 17 -8 50 -26 72 -40 56
-36 95 -58 135 -78 19 -9 37 -20 40 -23 3 -4 30 -20 60 -37 30 -17 82 -46 115
-65 148 -87 178 -100 187 -80 4 9 188 112 200 112 4 0 8 5 8 11 0 5 4 8 9 5 5
-4 11 -3 13 1 3 8 14 14 131 76 31 16 57 34 57 39 0 4 6 8 14 8 7 0 76 35 152
78 77 43 164 92 194 109 30 16 172 95 315 175 233 130 339 189 400 222 11 6
22 14 25 17 3 3 20 12 38 20 17 8 32 18 32 22 0 5 4 6 9 2 5 -3 15 0 23 7 7 7
31 22 53 34 57 30 147 80 244 136 46 26 88 48 92 48 5 0 9 515 9 1145 l0 1144
-119 71 c-66 38 -124 70 -130 70 -5 0 -11 3 -13 8 -4 10 -144 92 -157 92 -6 0
-11 5 -11 10 0 6 -4 10 -9 10 -5 0 -51 25 -102 56 -52 31 -101 59 -109 62 -8
3 -34 18 -57 34 -23 15 -46 28 -52 28 -6 0 -11 5 -11 10 0 6 -4 10 -9 10 -13
0 -225 122 -229 132 -2 4 -7 8 -12 8 -5 0 -48 23 -97 51 -48 29 -108 63 -133
77 -25 14 -62 36 -82 49 -21 12 -42 23 -48 23 -5 0 -10 3 -10 8 0 4 -13 13
-29 20 -16 7 -57 31 -90 52 -34 22 -61 37 -61 33 0 -3 -8 1 -17 9 -19 15 -61
41 -153 91 -30 17 -57 33 -60 36 -3 3 -18 13 -35 21 -16 8 -61 34 -100 57 -77
48 -72 46 -100 30z"/>
<path d="M11295 6934 c-33 -19 -80 -45 -105 -59 -25 -14 -52 -30 -60 -35 -53
-34 -204 -120 -211 -120 -5 0 -9 -5 -9 -11 0 -5 -4 -8 -9 -5 -5 3 -14 -1 -21
-9 -7 -8 -19 -15 -26 -15 -8 0 -14 -4 -14 -8 0 -4 -12 -13 -27 -19 -16 -7 -46
-23 -68 -37 -22 -14 -47 -29 -55 -33 -8 -4 -55 -31 -103 -60 -48 -29 -89 -53
-91 -53 -2 0 -50 -27 -105 -60 -56 -33 -106 -60 -111 -60 -6 0 -10 -4 -10 -8
0 -4 -24 -20 -52 -35 -29 -16 -66 -37 -83 -47 -16 -10 -41 -25 -55 -33 -14 -7
-42 -23 -62 -35 -21 -12 -53 -30 -70 -41 -18 -10 -105 -60 -193 -112 -88 -52
-177 -103 -198 -114 -20 -11 -37 -23 -37 -27 0 -5 -5 -8 -10 -8 -23 0 -160
-86 -166 -105 -8 -23 -7 -171 1 -184 3 -5 1 -12 -5 -16 -6 -4 -7 -12 0 -24 6
-12 6 -21 -1 -28 -6 -6 -6 -19 -1 -34 5 -13 6 -35 3 -48 -4 -13 -4 -51 -1 -83
3 -33 3 -61 0 -63 -3 -2 -3 -56 0 -120 3 -64 3 -118 0 -120 -3 -2 -3 -56 0
-120 3 -64 3 -119 1 -121 -6 -6 -2 -174 4 -184 3 -5 1 -11 -5 -15 -6 -4 -7
-12 0 -24 6 -12 6 -21 -1 -28 -6 -6 -6 -19 0 -35 5 -14 7 -28 4 -31 -7 -8 -6
-174 2 -186 3 -5 1 -12 -5 -16 -6 -4 -7 -12 0 -24 6 -12 6 -21 -1 -28 -6 -6
-6 -19 -1 -34 5 -13 6 -35 3 -48 -4 -13 -4 -51 -1 -83 3 -33 3 -61 0 -63 -3
-2 -3 -56 0 -120 3 -64 3 -118 0 -120 -3 -2 -3 -56 0 -120 3 -64 2 -119 -2
-121 -20 -12 18 -40 175 -130 95 -54 174 -101 175 -106 2 -4 8 -8 14 -8 5 0
63 -32 129 -70 66 -39 124 -70 130 -70 5 0 9 -4 9 -10 0 -5 4 -10 9 -10 5 0
44 -20 85 -45 42 -25 81 -45 86 -45 6 0 10 -3 10 -7 0 -5 10 -13 23 -19 56
-27 142 -78 145 -86 2 -4 12 -8 22 -8 10 0 20 -4 22 -8 2 -4 28 -22 58 -39 30
-17 111 -63 180 -103 69 -40 150 -87 180 -103 30 -17 66 -38 79 -49 13 -10 30
-18 37 -18 8 0 14 -4 14 -8 0 -4 12 -13 28 -20 15 -6 41 -20 57 -30 30 -19 71
-43 143 -83 20 -12 62 -36 93 -55 68 -41 79 -41 127 -9 20 14 39 25 43 25 3 0
44 22 90 48 46 27 109 62 139 79 30 16 64 35 75 41 228 130 576 321 593 326
12 4 22 11 22 16 0 5 10 12 22 15 11 4 42 19 67 34 25 15 77 44 114 65 227
124 342 190 349 201 4 5 8 6 8 2 0 -9 93 43 98 55 2 4 12 8 23 8 10 0 19 4 19
8 0 4 15 15 33 23 17 8 75 39 127 69 52 29 112 62 133 72 l37 20 0 1144 0
1143 -32 17 c-18 9 -41 23 -50 32 -10 8 -18 12 -18 8 0 -4 -12 2 -26 13 -15
12 -33 21 -40 21 -8 0 -14 4 -14 8 0 5 -19 18 -42 31 -24 12 -52 27 -63 34
-171 101 -199 118 -217 124 -10 3 -18 9 -18 14 0 5 -6 9 -12 9 -7 0 -41 18
-76 40 -34 22 -65 40 -68 40 -3 0 -19 9 -35 20 -15 12 -51 33 -78 48 -41 22
-436 251 -516 299 -11 7 -31 18 -45 25 -14 7 -27 15 -30 19 -3 3 -25 16 -50
30 -25 13 -46 27 -48 32 -2 4 -8 7 -13 7 -8 0 -250 139 -399 229 -19 11 -42
24 -50 28 -8 3 -26 14 -40 24 -25 17 -27 17 -85 -17z"/>
<path d="M6695 6910 c-27 -16 -54 -33 -60 -37 -5 -5 -14 -11 -20 -13 -5 -1
-27 -14 -47 -26 -21 -13 -40 -24 -43 -24 -3 0 -31 -16 -61 -35 -30 -19 -59
-35 -64 -35 -6 0 -10 -4 -10 -10 0 -5 -9 -10 -20 -10 -11 0 -20 -4 -20 -9 0
-5 -12 -15 -27 -22 -29 -15 -164 -91 -198 -112 -64 -39 -101 -60 -105 -60 -3
0 -23 -12 -45 -27 -22 -14 -60 -38 -85 -51 -25 -13 -47 -27 -50 -30 -3 -3 -20
-11 -37 -18 -18 -8 -33 -17 -33 -21 0 -5 -12 -13 -27 -19 -34 -13 -112 -58
-134 -77 -8 -8 -19 -14 -24 -14 -4 0 -31 -14 -59 -32 -28 -17 -64 -39 -81 -48
-16 -9 -50 -29 -75 -44 -25 -14 -61 -34 -80 -44 -19 -9 -37 -20 -40 -23 -3 -4
-22 -16 -42 -28 -73 -41 -104 -59 -181 -105 -43 -25 -83 -46 -88 -46 -5 0 -9
-4 -9 -10 0 -5 -5 -10 -10 -10 -6 0 -39 -17 -73 -38 -35 -21 -71 -41 -80 -45
-10 -4 -17 -18 -18 -34 0 -34 0 -2195 0 -2239 1 -21 7 -34 19 -37 16 -6 61
-31 189 -107 32 -19 60 -34 63 -35 3 0 16 -8 30 -16 64 -40 86 -53 139 -81 31
-17 63 -36 71 -43 8 -7 25 -16 38 -19 12 -4 22 -12 22 -17 0 -5 5 -9 11 -9 6
0 64 -32 129 -70 65 -39 123 -70 129 -70 6 0 11 -4 11 -10 0 -5 7 -10 15 -10
8 0 15 -5 15 -12 0 -6 3 -8 7 -5 3 4 13 1 22 -7 9 -7 44 -28 79 -47 34 -18 62
-36 62 -41 0 -4 9 -8 20 -8 11 0 20 -4 20 -10 0 -5 4 -10 9 -10 7 0 120 -62
181 -100 19 -12 164 -96 210 -122 19 -11 55 -32 80 -47 25 -14 57 -33 73 -41
15 -8 95 -54 178 -102 l150 -87 40 22 c22 12 61 34 87 49 26 15 54 31 62 35 8
4 64 35 125 68 176 98 228 127 260 143 17 9 32 18 35 21 3 3 19 13 35 22 36
19 136 75 185 102 19 10 40 23 46 28 6 5 14 6 17 2 4 -3 7 -1 7 5 0 7 5 12 10
12 6 0 28 11 49 24 21 14 42 22 45 19 3 -4 6 -1 6 5 0 7 7 12 15 12 8 0 15 4
15 8 0 4 12 13 28 20 15 6 45 22 67 34 22 13 81 45 130 72 50 28 92 54 93 58
2 4 7 6 12 3 5 -3 14 1 22 8 7 8 18 16 23 18 21 8 210 113 215 118 3 3 40 24
83 46 42 21 77 43 77 47 0 4 9 8 20 8 11 0 20 4 20 10 0 5 3 9 8 8 4 -1 18 5
32 13 76 47 153 89 166 89 12 0 14 160 14 1148 l0 1147 -57 33 c-32 18 -80 46
-108 63 -27 16 -58 32 -67 36 -10 3 -18 9 -18 14 0 5 -5 9 -11 9 -7 0 -35 14
-63 32 -48 29 -67 41 -161 93 -97 55 -231 135 -242 145 -7 5 -15 10 -18 10 -4
0 -44 23 -91 50 -47 28 -89 50 -93 50 -5 0 -11 4 -13 8 -4 10 -146 92 -159 92
-5 0 -9 3 -9 8 0 4 -15 13 -32 21 -18 8 -35 17 -38 20 -8 10 -152 91 -161 91
-5 0 -9 4 -9 8 0 4 -19 18 -42 30 -48 24 -108 59 -257 147 -56 33 -119 69
-139 80 -20 11 -61 35 -91 53 -30 19 -64 38 -77 43 -13 4 -24 13 -24 19 0 19
-44 9 -95 -20z"/>
</g>
</svg>
