<?xml version="1.0" encoding="utf-8"?>
<!-- Generator: Adobe Illustrator 24.1.1, SVG Export Plug-In . SVG Version: 6.00 Build 0)  -->
<svg version="1.1" id="Calque_1" xmlns="http://www.w3.org/2000/svg" xmlns:xlink="http://www.w3.org/1999/xlink" x="0px" y="0px"
	 viewBox="0 0 124 22" style="enable-background:new 0 0 124 22;" xml:space="preserve">
<style type="text/css">
	.st0{opacity:0.6;fill-rule:evenodd;clip-rule:evenodd;fill:#141414;enable-background:new    ;}
	.st1{fill-rule:evenodd;clip-rule:evenodd;fill:#141414;}
</style>
<desc>Created with Sketch.</desc>
<g id="Brand">
	<g id="FM-Logo---reverse">
		<g id="Logo">
			<path id="Fill-18" class="st0" d="M3,6.5c0-3.1,3.6-3.6,4-3.7L6.7,0C4.4,0.2,0,1.9,0,6.5V22h3v-7.3h4.7v-2.8H3V6.5z"/>
			<path id="Fill-20" class="st0" d="M56.1,11.5v9.7h2.9v-9.7c0-3.1,3.5-3.6,3.9-3.7l-0.3-2.8C60.3,5.3,56.1,7,56.1,11.5"/>
			<path id="Fill-22" class="st0" d="M30.9,15.5v-5.4h3.8V7.3h-3.8V0H28v15.5c0,4.5,4.2,6.2,6.5,6.5l0.3-2.8
				C34.4,19.2,30.9,18.6,30.9,15.5"/>
			<path id="Fill-24" class="st0" d="M48.2,15.6c0,2.6-1.5,3.6-2.8,3.6c-1.7,0-2.8-1.3-2.8-3.6V5.9h-2.7v9.7c0,4.4,2.8,6.4,5.5,6.4
				c2.7,0,5.5-2,5.5-6.4V5.9h-2.7V15.6z"/>
			<path id="Fill-26" class="st0" d="M20.2,15.6c0,2.6-1.5,3.6-2.8,3.6c-1.7,0-2.8-1.3-2.8-3.6V5.9h-2.7v9.7c0,4.4,2.8,6.4,5.5,6.4
				c2.7,0,5.5-2,5.5-6.4V5.9h-2.7V15.6z"/>
			<path id="Fill-30" class="st0" d="M73.5,5.1c-4,0-7.2,3.6-7.2,8c0,4.4,3.2,8,7.2,8c1.6,0,3.2-0.6,4.5-1.7l-1.8-2.1
				c-0.8,0.7-1.7,1.1-2.7,1.1C71,18.4,69,16,69,13.1c0-2.9,2-5.3,4.5-5.3c2.1,0,3.8,1.7,4.3,3.9h-5.7v2.7h8.5v-1.4
				C80.7,8.7,77.4,5.1,73.5,5.1"/>
			<path id="Fill-28" class="st1" d="M99.7,5.9c-1.7,0-3.2,0.8-4.2,1.9c-1.1-1.3-2.7-1.9-4.2-1.9c-3.1,0-5.6,2.5-5.6,5.5v9.7h2.8
				v-9.7c0-3.5,5.6-4.4,5.6,0.6v9.1v0h2.8v0V12v-0.6c0-3.5,5.6-4.4,5.6,0.6v9.1h2.8V12C105.3,7.8,102.4,5.9,99.7,5.9"/>
			<path id="Fill-32" class="st1" d="M115.5,14.5h8.5v-1.4c0-4.4-3.2-8-7.2-8c-4,0-7.2,3.6-7.2,8s3.2,8,7.2,8c1.6,0,3.2-0.6,4.5-1.7
				l-1.8-2.1c-0.8,0.7-1.7,1-2.7,1c-2.5,0-4.5-2.4-4.5-5.3s2-5.3,4.5-5.3c2.1,0,3.8,1.7,4.3,3.9h-5.7V14.5z"/>
		</g>
	</g>
</g>
</svg>
