<svg id="e0dbf76f-705f-4420-867c-6447e246773b" data-name="Calque 1" xmlns="http://www.w3.org/2000/svg" viewBox="0 0 640 480"><rect x="-0.02" y="-0.74" width="639.96" height="480" style="fill:#f4f4f4"/><ellipse cx="178.08" cy="26.82" rx="27.27" ry="26.68" style="fill:#fff"/><ellipse cx="116.93" cy="132.34" rx="27.27" ry="26.68" style="fill:#fff"/><rect x="-0.04" y="105.52" width="116.29" height="53.5" style="fill:#fff"/><ellipse cx="175.08" cy="239.33" rx="27.27" ry="26.68" style="fill:#fff"/><rect y="212.51" width="174.4" height="53.5" style="fill:#fff"/><ellipse cx="117.01" cy="346.33" rx="27.27" ry="26.68" style="fill:#fff"/><rect x="-0.01" y="319.51" width="116.34" height="53.5" style="fill:#fff"/><path d="M24.28,80.32c0-14.51,11.84-26.31,26.59-26.66V53.5H0V107H50.87v0C36.12,106.62,24.28,94.83,24.28,80.32Z" style="fill:#fff"/><path d="M63.12,185.83c0-14.51,11.84-26.3,26.59-26.66V159H38.84v53.5H89.71v0C75,212.14,63.12,200.34,63.12,185.83Z" style="fill:#fff"/><rect x="-0.02" y="159.01" width="38.86" height="53.5" style="fill:#fff"/><path d="M24.23,292.83c0-14.51,11.85-26.31,26.59-26.66V266H0v53.5H50.82v0C36.08,319.14,24.23,307.34,24.23,292.83Z" style="fill:#fff"/><path d="M82.55,399.82c0-14.51,11.85-26.3,26.59-26.66V373H58.27v53.5h50.87C94.4,426.13,82.55,414.33,82.55,399.82Z" style="fill:#fff"/><rect x="-0.01" y="373" width="58.28" height="53.5" style="fill:#fff"/><ellipse cx="175.08" cy="453.32" rx="27.27" ry="26.68" style="fill:#fff"/><rect y="426.5" width="174.4" height="53.5" style="fill:#fff"/><path d="M450.11,196.21v23.11l-86.77,42.81V238l61.17-30.19L363.34,177.5V153.39ZM276.57,238,215.4,207.76l61.17-30.26V153.39L189.8,196.21v23.11l86.77,42.81ZM353,121H330.47L287,294.53h22.49Z" style="fill:#262626"/><ellipse cx="464.63" cy="453.18" rx="27.27" ry="26.68" style="fill:#fff"/><rect x="462.49" y="426.5" width="177.39" height="53.5" transform="translate(1102.38 906.5) rotate(-180)" style="fill:#fff"/><ellipse cx="539.39" cy="347.66" rx="27.27" ry="26.68" style="fill:#fff"/><rect x="540.07" y="320.99" width="99.18" height="53.5" transform="translate(1179.32 695.47) rotate(-180)" style="fill:#fff"/><ellipse cx="513.61" cy="240.67" rx="27.27" ry="26.68" style="fill:#fff"/><rect x="511.47" y="213.99" width="128.41" height="53.5" transform="translate(1151.36 481.48) rotate(-180)" style="fill:#fff"/><ellipse cx="486.09" cy="133.67" rx="27.27" ry="26.68" style="fill:#fff"/><rect x="486.77" y="107" width="153.12" height="53.5" transform="translate(1126.66 267.49) rotate(-180)" style="fill:#fff"/><path d="M615.61,399.68c0,14.51-11.84,26.31-26.59,26.66v.16h50.87V373H589v0C603.77,373.38,615.61,385.17,615.61,399.68Z" style="fill:#fff"/><path d="M576.77,294.17c0,14.51-11.84,26.3-26.59,26.66V321h50.87v-53.5H550.18v0C564.93,267.86,576.77,279.66,576.77,294.17Z" style="fill:#fff"/><rect x="601.05" y="267.49" width="38.86" height="53.5" transform="translate(1240.96 588.47) rotate(-180)" style="fill:#fff"/><path d="M615.66,187.17c0,14.51-11.85,26.31-26.59,26.66V214h50.86v-53.5H589.07v0C603.81,160.86,615.66,172.66,615.66,187.17Z" style="fill:#fff"/><path d="M557.34,80.18c0,14.51-11.85,26.3-26.59,26.66V107h50.86V53.5H530.75C545.49,53.87,557.34,65.67,557.34,80.18Z" style="fill:#fff"/><rect x="581.61" y="53.5" width="58.28" height="53.5" transform="translate(1221.51 160.49) rotate(-180)" style="fill:#fff"/><ellipse cx="497.25" cy="26.68" rx="27.27" ry="26.68" style="fill:#fff"/><rect x="495.12" width="145.26" height="53.5" transform="translate(1135.5 53.5) rotate(-180)" style="fill:#fff"/><rect x="186.91" y="338.58" width="275.39" height="92.48" style="fill:#262626"/><text transform="translate(222.94 403.38)" style="font-size:55px;fill:#fff;font-family:Montserrat-Bold, Montserrat;font-weight:700"><tspan style="letter-spacing:-0.015003551136363636em">C</tspan><tspan x="39.49" y="0">ODES</tspan></text><rect width="177.39" height="53.5" style="fill:#fff"/></svg>