<svg id="f7e423fc-8db9-4b67-b461-a3d66a9d829b" data-name="Calque 1" xmlns="http://www.w3.org/2000/svg" viewBox="0 0 640 480"><rect x="0.4" y="0.26" width="639.96" height="480" style="fill:#f4f4f4"/><path d="M50.87,266.17V266H174.44v0l.68,0c15.06,0,27.27-11.94,27.27-26.68s-12.21-26.68-27.27-26.68l-.68,0v-.16H89.75v0c-14.74-.35-26.59-12.15-26.59-26.66S75,159.53,89.75,159.17V159H117c15.07,0,27.28-11.94,27.28-26.67S132,105.66,117,105.66h-.68v-.15H42.66a26.73,26.73,0,0,1-18.34-25.2c0-14.51,11.85-26.31,26.59-26.66V53.5H177.44v0l.68,0c15.06,0,27.27-12,27.27-26.68S193.18.14,178.12.14l-.68,0V0H0V105.52H0V159H0v53.5H0V266H0v53.5H0v107H0V480h174.4v0l.68,0c15.06,0,27.27-11.94,27.27-26.68s-12.21-26.68-27.27-26.68l-.68,0v-.16H109.18c-14.74-.36-26.58-12.16-26.58-26.67s11.84-26.3,26.58-26.66V373h7.88c15.06,0,27.27-11.94,27.27-26.67s-12.21-26.68-27.27-26.68l-.68,0v-.16H50.87v0c-14.75-.35-26.59-12.15-26.59-26.66S36.12,266.52,50.87,266.17Z" style="fill:#fff"/><path d="M639.94,107V53.5h.49V0H495.16V.09C481.1,1.15,470,12.65,470,26.68S481.1,52.2,495.16,53.27v.23h35.63c14.75.36,26.59,12.16,26.59,26.67s-11.84,26.3-26.59,26.66V107H486.13c-15.06,0-27.27,11.94-27.27,26.67s12.21,26.68,27.27,26.68l.68,0v.16h102.3v0c14.75.35,26.59,12.15,26.59,26.66s-11.84,26.31-26.59,26.66V214H511.52v.09a26.91,26.91,0,0,0-25.14,26.59c0,14,11.07,25.52,25.14,26.59v.23h38.7v0c14.75.35,26.59,12.15,26.59,26.66s-11.84,26.3-26.59,26.66V321H539.43c-15.06,0-27.27,11.94-27.27,26.67s12.21,26.68,27.27,26.68h.68v.15h57.21a26.73,26.73,0,0,1,18.34,25.2c0,14.51-11.85,26.31-26.59,26.66v.16H462.54v.09c-14.07,1.07-25.14,12.56-25.14,26.59a26.91,26.91,0,0,0,25.14,26.59V480H639.93V373h-.64V321H640v-53.5h0V214H640v-53.5h-.05V107Z" style="fill:#fff"/><rect x="72.84" y="337.72" width="503.62" height="92.48" style="fill:#262626"/><text transform="translate(107.37 403.24)" style="font-size:55px;fill:#fff;font-family:Montserrat-Bold, Montserrat;font-weight:700"><tspan style="letter-spacing:-0.015003551136363636em">C</tspan><tspan x="39.49" y="0">OM</tspan><tspan x="138.43" y="0" style="letter-spacing:-0.009987571022727272em">P</tspan><tspan x="178.14" y="0" style="letter-spacing:-0.000008877840909090909em">RESSION</tspan></text><polygon points="411.45 117.4 400.71 106.67 342.92 164.46 342.92 132.69 327.74 132.69 327.74 190.38 385.43 190.38 385.43 175.19 353.66 175.19 411.45 117.4" style="fill:#262626"/><polygon points="263.93 211.84 295.54 211.84 237.91 269.47 248.65 280.2 306.44 222.42 306.44 254.35 321.62 254.35 321.62 196.66 263.93 196.66 263.93 211.84" style="fill:#262626"/></svg>