<svg id="a626f563-308b-49a7-90ff-dabd786098e0" data-name="Calque 1" xmlns="http://www.w3.org/2000/svg" viewBox="0 0 640 480"><rect x="0.39" y="0.26" width="639.96" height="480" style="fill:#262626"/><path d="M262.16,278.64c33.16,2.75,21.28-32.48,52-32.81l13.29,11.09C330.73,297,281.76,305.89,262.16,278.64ZM363.85,227.2c10.32-16.19,42.28-70.49,42.28-70.49a4.67,4.67,0,0,0-7.06-5.88s-47.51,41.31-61.53,54.41c-11.08,10.35-11.13,15.08-14.72,32.15L335,247.52C351.07,240.9,355.71,240,363.85,227.2Zm-86.75,28c4.81-8.2,12.63-21.52,32.15-23.58,3.14-15.09,4.39-23.86,18.42-37,9.92-9.27,35.7-31.88,50.76-45-7.23-16-29.94-29.09-59.13-28.85a86.75,86.75,0,0,0-65.67,142.63C265.32,266.52,270.81,265.94,277.1,255.22Zm50.26-114.49A14.46,14.46,0,1,1,313,155.3,14.51,14.51,0,0,1,327.36,140.73ZM284,155.2a14.46,14.46,0,1,1-14.34,14.54A14.4,14.4,0,0,1,284,155.2Zm-14.48,43.37a14.46,14.46,0,1,1-14.33,14.56A14.46,14.46,0,0,1,269.52,198.57Zm72.53,61.69c.15,16.18-6.38,26.88-12.16,33.16l-.34.32c38-4.27,65.53-31.12,45.31-57C364.93,251.5,356.54,254.36,342.05,260.26Z" style="fill:#fff"/><path d="M50.87,266.17V266H174.44v0l.68,0c15.06,0,27.27-11.94,27.27-26.68s-12.21-26.68-27.27-26.68l-.68,0v-.16H89.75v0c-14.74-.35-26.59-12.15-26.59-26.66S75,159.53,89.75,159.17V159H117c15.07,0,27.28-11.94,27.28-26.67S132,105.66,117,105.66h-.68v-.15H42.66a26.73,26.73,0,0,1-18.34-25.2c0-14.51,11.85-26.31,26.59-26.66V53.5H177.44v0l.68,0c15.06,0,27.27-12,27.27-26.68S193.18.14,178.12.14l-.68,0V0H0V105.52H0V159H0v53.5H0V266H0v53.5H0v107H0V480h174.4v0l.68,0c15.06,0,27.27-11.94,27.27-26.68s-12.21-26.68-27.27-26.68l-.68,0v-.16H109.18c-14.74-.36-26.58-12.16-26.58-26.67s11.84-26.3,26.58-26.66V373h7.88c15.06,0,27.27-11.94,27.27-26.67s-12.21-26.68-27.27-26.68l-.68,0v-.16H50.87v0c-14.75-.35-26.59-12.15-26.59-26.66S36.12,266.52,50.87,266.17Z" style="fill:#2d2d2d"/><path d="M639.94,107V53.5h.49V0H495.16V.09C481.1,1.15,470,12.65,470,26.68S481.1,52.2,495.16,53.27v.23h35.63c14.75.36,26.59,12.16,26.59,26.67s-11.84,26.3-26.59,26.66V107H486.13c-15.06,0-27.27,11.94-27.27,26.67s12.21,26.68,27.27,26.68l.68,0v.16h102.3v0c14.75.35,26.59,12.15,26.59,26.66s-11.84,26.31-26.59,26.66V214H511.52v.09a26.91,26.91,0,0,0-25.14,26.59c0,14,11.07,25.52,25.14,26.59v.23h38.7v0c14.75.35,26.59,12.15,26.59,26.66s-11.84,26.3-26.59,26.66V321H539.43c-15.06,0-27.27,11.94-27.27,26.67s12.21,26.68,27.27,26.68h.68v.15h57.21a26.73,26.73,0,0,1,18.34,25.2c0,14.51-11.85,26.31-26.59,26.66v.16H462.54v.09c-14.07,1.07-25.14,12.56-25.14,26.59a26.91,26.91,0,0,0,25.14,26.59V480H639.93V373h-.64V321H640v-53.5h0V214H640v-53.5h-.05V107Z" style="fill:#2d2d2d"/><rect x="138.41" y="338.72" width="372.47" height="92.48" style="fill:#fff"/><text transform="translate(175.36 404.46)" style="font-size:58px;fill:#262626;font-family:Montserrat-Bold, Montserrat;font-weight:700"><tspan style="letter-spacing:-0.015002020474137932em">C</tspan><tspan x="41.64" y="0">OULEUR</tspan></text></svg>