<svg id="b277417c-4cee-4a6d-a740-811d9f93062d" data-name="Calque 1" xmlns="http://www.w3.org/2000/svg" viewBox="0 0 640 480"><rect x="0.39" y="0.26" width="639.96" height="480" style="fill:#262626"/><path d="M340.43,243.24a3.39,3.39,0,1,0,3.39,3.39A3.39,3.39,0,0,0,340.43,243.24Z" style="fill:#fff"/><path d="M389.92,126H250.27a17,17,0,0,0-16.94,16.95V246.63a17,17,0,0,0,16.94,16.95h52.88v15.59h-3.39a17,17,0,0,0-16.95,16.95,3.39,3.39,0,0,0,3.39,3.39H354a3.39,3.39,0,0,0,3.39-3.39,17,17,0,0,0-16.95-16.95H337V263.58h52.88a17,17,0,0,0,16.94-16.95V142.92A17,17,0,0,0,389.92,126Zm-139.65,6.78H389.92a10.18,10.18,0,0,1,10.16,10.17v86.77H384.49v-78a3.39,3.39,0,0,0-3.39-3.39H354a3.39,3.39,0,0,0-3.39,3.39v78h-17c0-3.51-.12-7-.27-10.32a216,216,0,0,0-2.65-27.12,16.93,16.93,0,0,0,4.63-22.1L323.59,149.8a3.39,3.39,0,0,0-5.87,0L306,170.15a17,17,0,0,0,3.73,21.39,216.69,216.69,0,0,0-2.86,27.83c-.15,3.38-.25,6.84-.28,10.32h-17V178.85a3.52,3.52,0,0,0-.33-1.47l0,0-13.55-27.12a3.4,3.4,0,0,0-6.07,0l-13.55,27.12,0,0a3.41,3.41,0,0,0-.33,1.47v50.84H240.11V142.92A10.18,10.18,0,0,1,250.27,132.75Zm107.11,96.94V155.12h20.33v6.78h-3.38a3.39,3.39,0,1,0,0,6.78h3.38v10.17h-3.38a3.39,3.39,0,1,0,0,6.77h3.38v10.17h-3.38a3.39,3.39,0,1,0,0,6.78h3.38v13.56h-3.38a3.39,3.39,0,1,0,0,6.78h3.38v6.78Zm-36.72-34.13a16.69,16.69,0,0,0,3.66-.41c.62,4,1.55,11.17,2.09,21H313.8c.57-9.81,1.54-17,2.21-21.22A16.85,16.85,0,0,0,320.66,195.56Zm0-6.78a10.18,10.18,0,0,1-8.82-15.24l8.82-15.27,8.81,15.27A10.17,10.17,0,0,1,320.66,188.78Zm-7.17,34.13h13.22c.07,2.22.12,4.49.15,6.78H313.34Q313.37,226.27,313.49,222.91ZM276,229.69V182.23h6.78v47.46Zm-13.55,0V182.23h6.78v47.46Zm2.09-54.23,8.07-16.15,8.08,16.15ZM350,292.73H290.17a10.18,10.18,0,0,1,9.59-6.78h40.67A10.18,10.18,0,0,1,350,292.73Zm-19.76-13.56H309.93V263.58h20.33Zm59.66-22.37H250.27a10.18,10.18,0,0,1-10.16-10.17V236.46h160v10.17A10.18,10.18,0,0,1,389.92,256.8Z" style="fill:#fff"/><path d="M326.87,243.24H306.54a3.39,3.39,0,0,0,0,6.78h20.33a3.39,3.39,0,1,0,0-6.78Z" style="fill:#fff"/><path d="M50.87,266.17V266H174.44v0l.68,0c15.06,0,27.27-11.94,27.27-26.68s-12.21-26.68-27.27-26.68l-.68,0v-.16H89.75v0c-14.74-.35-26.59-12.15-26.59-26.66S75,159.53,89.75,159.17V159H117c15.07,0,27.28-11.94,27.28-26.67S132,105.66,117,105.66h-.68v-.15H42.66a26.73,26.73,0,0,1-18.34-25.2c0-14.51,11.85-26.31,26.59-26.66V53.5H177.44v0l.68,0c15.06,0,27.27-12,27.27-26.68S193.18.14,178.12.14l-.68,0V0H0V105.52H0V159H0v53.5H0V266H0v53.5H0v107H0V480h174.4v0l.68,0c15.06,0,27.27-11.94,27.27-26.68s-12.21-26.68-27.27-26.68l-.68,0v-.16H109.18c-14.74-.36-26.58-12.16-26.58-26.67s11.84-26.3,26.58-26.66V373h7.88c15.06,0,27.27-11.94,27.27-26.67s-12.21-26.68-27.27-26.68l-.68,0v-.16H50.87v0c-14.75-.35-26.59-12.15-26.59-26.66S36.12,266.52,50.87,266.17Z" style="fill:#2d2d2d"/><path d="M639.94,107V53.5h.49V0H495.16V.09C481.1,1.15,470,12.65,470,26.68S481.1,52.2,495.16,53.27v.23h35.63c14.75.36,26.59,12.16,26.59,26.67s-11.84,26.3-26.59,26.66V107H486.13c-15.06,0-27.27,11.94-27.27,26.67s12.21,26.68,27.27,26.68l.68,0v.16h102.3v0c14.75.35,26.59,12.15,26.59,26.66s-11.84,26.31-26.59,26.66V214H511.52v.09a26.91,26.91,0,0,0-25.14,26.59c0,14,11.07,25.52,25.14,26.59v.23h38.7v0c14.75.35,26.59,12.15,26.59,26.66s-11.84,26.3-26.59,26.66V321H539.43c-15.06,0-27.27,11.94-27.27,26.67s12.21,26.68,27.27,26.68h.68v.15h57.21a26.73,26.73,0,0,1,18.34,25.2c0,14.51-11.85,26.31-26.59,26.66v.16H462.54v.09c-14.07,1.07-25.14,12.56-25.14,26.59a26.91,26.91,0,0,0,25.14,26.59V480H639.93V373h-.64V321H640v-53.5h0V214H640v-53.5h-.05V107Z" style="fill:#2d2d2d"/><rect x="180.36" y="338.58" width="288.57" height="92.48" style="fill:#fff"/><text transform="translate(213.5 404.38)" style="font-size:55px;fill:#262626;font-family:Montserrat-Bold, Montserrat;font-weight:700">DESIGN</text></svg>