<svg id="beb19fb1-a4a0-4e82-ad68-05ed8b9270a0" data-name="Calque 1" xmlns="http://www.w3.org/2000/svg" viewBox="0 0 640 480"><rect x="0.39" y="0.26" width="639.96" height="480" style="fill:#262626"/><path d="M50.87,266.17V266H174.44v0l.68,0c15.06,0,27.27-11.94,27.27-26.68s-12.21-26.68-27.27-26.68l-.68,0v-.16H89.75v0c-14.74-.35-26.59-12.15-26.59-26.66S75,159.53,89.75,159.17V159H117c15.07,0,27.28-11.94,27.28-26.67S132,105.66,117,105.66h-.68v-.15H42.66a26.73,26.73,0,0,1-18.34-25.2c0-14.51,11.85-26.31,26.59-26.66V53.5H177.44v0l.68,0c15.06,0,27.27-12,27.27-26.68S193.18.14,178.12.14l-.68,0V0H0V105.52H0V159H0v53.5H0V266H0v53.5H0v107H0V480h174.4v0l.68,0c15.06,0,27.27-11.94,27.27-26.68s-12.21-26.68-27.27-26.68l-.68,0v-.16H109.18c-14.74-.36-26.58-12.16-26.58-26.67s11.84-26.3,26.58-26.66V373h7.88c15.06,0,27.27-11.94,27.27-26.67s-12.21-26.68-27.27-26.68l-.68,0v-.16H50.87v0c-14.75-.35-26.59-12.15-26.59-26.66S36.12,266.52,50.87,266.17Z" style="fill:#2d2d2d"/><path d="M639.94,107V53.5h.49V0H495.16V.09C481.1,1.15,470,12.65,470,26.68S481.1,52.2,495.16,53.27v.23h35.63c14.75.36,26.59,12.16,26.59,26.67s-11.84,26.3-26.59,26.66V107H486.13c-15.06,0-27.27,11.94-27.27,26.67s12.21,26.68,27.27,26.68l.68,0v.16h102.3v0c14.75.35,26.59,12.15,26.59,26.66s-11.84,26.31-26.59,26.66V214H511.52v.09a26.91,26.91,0,0,0-25.14,26.59c0,14,11.07,25.52,25.14,26.59v.23h38.7v0c14.75.35,26.59,12.15,26.59,26.66s-11.84,26.3-26.59,26.66V321H539.43c-15.06,0-27.27,11.94-27.27,26.67s12.21,26.68,27.27,26.68h.68v.15h57.21a26.73,26.73,0,0,1,18.34,25.2c0,14.51-11.85,26.31-26.59,26.66v.16H462.54v.09c-14.07,1.07-25.14,12.56-25.14,26.59a26.91,26.91,0,0,0,25.14,26.59V480H639.93V373h-.64V321H640v-53.5h0V214H640v-53.5h-.05V107Z" style="fill:#2d2d2d"/><rect x="183.53" y="338.39" width="282.23" height="92.48" style="fill:#fff"/><text transform="translate(216.71 404.57)" style="font-size:55px;fill:#262626;font-family:Montserrat-Bold, Montserrat;font-weight:700">D<tspan x="45.43" y="0" style="letter-spacing:-0.003995028409090909em">I</tspan><tspan x="63.25" y="0" style="letter-spacing:-0.015003551136363636em">V</tspan><tspan x="103.45" y="0">ERS</tspan></text><circle cx="327.49" cy="132.69" r="13.31" style="fill:#fff"/><circle cx="287.51" cy="132.69" r="13.31" style="fill:#fff"/><circle cx="367.54" cy="132.69" r="13.31" style="fill:#fff"/><circle cx="287.51" cy="172.74" r="13.31" style="fill:#fff"/><path d="M367.56,159.43a13.31,13.31,0,1,0,13.28,13.31A13.32,13.32,0,0,0,367.56,159.43Z" style="fill:#fff"/><path d="M379.46,228.47a4.22,4.22,0,0,0-.86-.68,26.65,26.65,0,0,0-33,3.71l-4.71,4.72V172.76a13.34,13.34,0,0,0-26.67,0v29.35a13.13,13.13,0,0,0-18-2.42l-28.72,16.62a13.28,13.28,0,0,0-6.64,11.49v21.94A43.13,43.13,0,0,0,333.77,281V281l45.69-45.69A4.85,4.85,0,0,0,379.46,228.47Z" style="fill:#fff"/></svg>