<svg id="f80534d4-66dc-4d34-89df-fbfdd9788e1a" data-name="Calque 1" xmlns="http://www.w3.org/2000/svg" viewBox="0 0 640 480"><rect x="0.39" y="0.26" width="639.96" height="480" style="fill:#262626"/><path d="M50.87,266.17V266H174.44v0l.68,0c15.06,0,27.27-11.94,27.27-26.68s-12.21-26.68-27.27-26.68l-.68,0v-.16H89.75v0c-14.74-.35-26.59-12.15-26.59-26.66S75,159.53,89.75,159.17V159H117c15.07,0,27.28-11.94,27.28-26.67S132,105.66,117,105.66h-.68v-.15H42.66a26.73,26.73,0,0,1-18.34-25.2c0-14.51,11.85-26.31,26.59-26.66V53.5H177.44v0l.68,0c15.06,0,27.27-12,27.27-26.68S193.18.14,178.12.14l-.68,0V0H0V105.52H0V159H0v53.5H0V266H0v53.5H0v107H0V480h174.4v0l.68,0c15.06,0,27.27-11.94,27.27-26.68s-12.21-26.68-27.27-26.68l-.68,0v-.16H109.18c-14.74-.36-26.58-12.16-26.58-26.67s11.84-26.3,26.58-26.66V373h7.88c15.06,0,27.27-11.94,27.27-26.67s-12.21-26.68-27.27-26.68l-.68,0v-.16H50.87v0c-14.75-.35-26.59-12.15-26.59-26.66S36.12,266.52,50.87,266.17Z" style="fill:#2d2d2d"/><path d="M639.94,107V53.5h.49V0H495.16V.09C481.1,1.15,470,12.65,470,26.68S481.1,52.2,495.16,53.27v.23h35.63c14.75.36,26.59,12.16,26.59,26.67s-11.84,26.3-26.59,26.66V107H486.13c-15.06,0-27.27,11.94-27.27,26.67s12.21,26.68,27.27,26.68l.68,0v.16h102.3v0c14.75.35,26.59,12.15,26.59,26.66s-11.84,26.31-26.59,26.66V214H511.52v.09a26.91,26.91,0,0,0-25.14,26.59c0,14,11.07,25.52,25.14,26.59v.23h38.7v0c14.75.35,26.59,12.15,26.59,26.66s-11.84,26.3-26.59,26.66V321H539.43c-15.06,0-27.27,11.94-27.27,26.67s12.21,26.68,27.27,26.68h.68v.15h57.21a26.73,26.73,0,0,1,18.34,25.2c0,14.51-11.85,26.31-26.59,26.66v.16H462.54v.09c-14.07,1.07-25.14,12.56-25.14,26.59a26.91,26.91,0,0,0,25.14,26.59V480H639.93V373h-.64V321H640v-53.5h0V214H640v-53.5h-.05V107Z" style="fill:#2d2d2d"/><g id="b7cadb29-97c7-4c0a-a533-78848cbd4558" data-name="Light Bulb"><path d="M341.22,245.14A16.86,16.86,0,0,1,349.38,232a60.78,60.78,0,0,0,29.79-52.54,58.81,58.81,0,0,0-117.61,0A60.77,60.77,0,0,0,291.36,232a16.87,16.87,0,0,1,8.15,13.18h24.32v6.92H299.61v6.85h24.22v6.92H299.61v7h41.51V265.9H330.74V259h10.38v-6.92H330.74v-6.92Zm9-108.16a51.93,51.93,0,0,1,22,42.44h-6.92a45.06,45.06,0,0,0-19.1-36.79Zm-15-7.29a51.33,51.33,0,0,1,7.48,2.88l-3,6.23a44.2,44.2,0,0,0-6.48-2.49Z" style="fill:#fff"/><path d="M300,279.73a17.32,17.32,0,0,0,17,13.84h6.92a17.32,17.32,0,0,0,16.94-13.84Z" style="fill:#fff"/><path d="M316.91,93h6.92v13.83h-6.92Z" style="fill:#fff"/><path d="M256.76,120.72l4.9-4.89,9.78,9.78-4.89,4.89Z" style="fill:#fff"/><path d="M233.89,176h13.84v6.92H233.89Z" style="fill:#fff"/><path d="M256.75,238.11l9.78-9.78,4.9,4.89L261.64,243Z" style="fill:#fff"/><path d="M369.25,233.23l4.89-4.89,9.78,9.78L379,243Z" style="fill:#fff"/><path d="M393,176h13.84v6.92H393Z" style="fill:#fff"/><path d="M369.26,125.63l9.78-9.78,4.9,4.89-9.79,9.78Z" style="fill:#fff"/></g><rect x="102.7" y="338.44" width="443.91" height="92.48" style="fill:#fff"/><text transform="translate(135.23 404.51)" style="font-size:55px;fill:#262626;font-family:Montserrat-Bold, Montserrat;font-weight:700">INS<tspan x="97.57" y="0" style="letter-spacing:-0.009996448863636364em">P</tspan><tspan x="137.28" y="0">IR</tspan><tspan x="195.74" y="0" style="letter-spacing:-0.034978693181818184em">A</tspan><tspan x="235.95" y="0">TION</tspan></text></svg>