<svg id="b7855ab4-b037-4857-ac3b-3dd6c2770ff3" data-name="Calque 1" xmlns="http://www.w3.org/2000/svg" viewBox="0 0 640 480"><rect y="0.26" width="639.96" height="480" style="fill:#f4f4f4"/><path d="M50.87,266.17V266H174.44v0l.68,0c15.06,0,27.27-11.94,27.27-26.68s-12.21-26.68-27.27-26.68l-.68,0v-.16H89.75v0c-14.74-.35-26.59-12.15-26.59-26.66S75,159.53,89.75,159.17V159H117c15.07,0,27.28-11.94,27.28-26.67S132,105.66,117,105.66h-.68v-.15H42.66a26.73,26.73,0,0,1-18.34-25.2c0-14.51,11.85-26.31,26.59-26.66V53.5H177.44v0l.68,0c15.06,0,27.27-12,27.27-26.68S193.18.14,178.12.14l-.68,0V0H0V105.52H0V159H0v53.5H0V266H0v53.5H0v107H0V480h174.4v0l.68,0c15.06,0,27.27-11.94,27.27-26.68s-12.21-26.68-27.27-26.68l-.68,0v-.16H109.18c-14.74-.36-26.58-12.16-26.58-26.67s11.84-26.3,26.58-26.66V373h7.88c15.06,0,27.27-11.94,27.27-26.67s-12.21-26.68-27.27-26.68l-.68,0v-.16H50.87v0c-14.75-.35-26.59-12.15-26.59-26.66S36.12,266.52,50.87,266.17Z" style="fill:#fff"/><path d="M639.94,107V53.5h.49V0H495.16V.09C481.1,1.15,470,12.65,470,26.68S481.1,52.2,495.16,53.27v.23h35.63c14.75.36,26.59,12.16,26.59,26.67s-11.84,26.3-26.59,26.66V107H486.13c-15.06,0-27.27,11.94-27.27,26.67s12.21,26.68,27.27,26.68l.68,0v.16h102.3v0c14.75.35,26.59,12.15,26.59,26.66s-11.84,26.31-26.59,26.66V214H511.52v.09a26.91,26.91,0,0,0-25.14,26.59c0,14,11.07,25.52,25.14,26.59v.23h38.7v0c14.75.35,26.59,12.15,26.59,26.66s-11.84,26.3-26.59,26.66V321H539.43c-15.06,0-27.27,11.94-27.27,26.67s12.21,26.68,27.27,26.68h.68v.15h57.21a26.73,26.73,0,0,1,18.34,25.2c0,14.51-11.85,26.31-26.59,26.66v.16H462.54v.09c-14.07,1.07-25.14,12.56-25.14,26.59a26.91,26.91,0,0,0,25.14,26.59V480H639.93V373h-.64V321H640v-53.5h0V214H640v-53.5h-.05V107Z" style="fill:#fff"/><rect x="74.02" y="338.35" width="501.25" height="92.48" style="fill:#262626"/><text transform="translate(106.55 404.6)" style="font-size:55px;fill:#fff;font-family:Montserrat-Bold, Montserrat;font-weight:700"><tspan style="letter-spacing:-0.009996448863636364em">P</tspan><tspan x="39.71" y="0">RODU</tspan><tspan x="215.32" y="0" style="letter-spacing:-0.0069779829545454555em">C</tspan><tspan x="255.25" y="0">T</tspan><tspan x="289.24" y="0" style="letter-spacing:-0.004012784090909091em">I</tspan><tspan x="307.06" y="0" style="letter-spacing:-0.014985795454545455em">V</tspan><tspan x="347.27" y="0">ITÉ</tspan></text><path d="M269.37,170.18a36.16,36.16,0,1,1-36.16,36.16A36.16,36.16,0,0,1,269.37,170.18Zm108.46-28.92a21.7,21.7,0,1,0-42.32,6.42l-30.43,22.83a50.52,50.52,0,0,1,8.68,11.56l30.35-22.76a21.69,21.69,0,0,0,33.72-18.05ZM335.51,265a21.5,21.5,0,1,0,8.61-11.63L313.77,230.6a50.81,50.81,0,0,1-8.68,11.56Zm49.55-36.51a21.7,21.7,0,1,0-20.23-29.37H319.4a45.35,45.35,0,0,1,0,14.46h45.15A21.61,21.61,0,0,0,385.06,228.48Z" style="fill:#262626"/></svg>