<svg id="b080c56b-7400-4faf-b655-8eacc077ea03" data-name="b2ab7930-4dc2-4530-90a0-9895fa130c77" xmlns="http://www.w3.org/2000/svg" viewBox="0 0 333.83 216.54"><polygon points="175.47 86.36 224.79 114.9 276.01 86.36 276.01 29.29 225.74 0 175.47 29.29 175.47 86.36" style="fill:#262626"/><polygon points="60.51 86.36 109.83 114.9 161.05 86.36 161.05 29.29 110.78 0 60.51 29.29 60.51 86.36" style="fill:#262626"/><polygon points="0 186.61 49.32 215.14 100.53 186.61 100.53 129.54 50.27 100.25 0 129.54 0 186.61" style="fill:#262626"/><polygon points="118.48 188 167.81 216.54 219.02 188 219.02 130.93 168.75 101.64 118.48 130.93 118.48 188" style="fill:#262626"/><polygon points="233.3 187.44 282.62 215.97 333.83 187.44 333.83 130.37 283.57 101.08 233.3 130.37 233.3 187.44" style="fill:#262626"/><path d="M48.06,144.44H41.44v-2.21h6.62Zm0,2.21H41.44v2.21h6.62Zm0-8.83H41.44V140h6.62Zm0,13.25H41.44v2.2h6.62Zm0,4.41H41.44v2.21h6.62Zm-3.31,19.88c-3.59,0-6.23-2-5.36-5.52l2-9.94h6.62l2,9.94C51,173.32,48.34,175.36,44.75,175.36Zm3.3-4.29c0-3-6.61-2.89-6.61,0s6.61,2.82,6.61,0Zm.81-35.46c9.18,0,5.82,13.25,5.82,13.25s13.25-3.65,13.25,5.42v25.49H32.6V135.61Zm1.83-4.42H28.22v53H72.39V152.42c0-5.31-14.72-21.23-21.7-21.23Z" style="fill:#fff"/><path d="M151.09,180.8c10.13.84,6.5-9.92,15.87-10l4.06,3.39C172,186.4,157.07,189.11,151.09,180.8Zm31.06-15.69c3.15-5,12.91-21.53,12.91-21.53a1.43,1.43,0,0,0-2.16-1.8s-14.51,12.62-18.79,16.62c-3.39,3.16-3.4,4.61-4.5,9.82l3.71,3.09C178.22,169.27,179.66,169,182.15,165.11Zm-26.5,8.56c1.47-2.51,3.86-6.58,9.82-7.21,1-4.6,1.34-7.28,5.62-11.28,3-2.84,10.91-9.74,15.51-13.76-2.21-4.88-9.15-8.88-18.06-8.81a26.49,26.49,0,0,0-20.06,43.5c3.57,1,5.25.81,7.17-2.46Zm15.35-35a4.42,4.42,0,1,1-4.38,4.46v0a4.43,4.43,0,0,1,4.38-4.43Zm-13.24,4.44a4.42,4.42,0,1,1-4.38,4.46v0a4.4,4.4,0,0,1,4.36-4.44Zm-4.43,13.24a4.42,4.42,0,1,1-4.37,4.47v0a4.43,4.43,0,0,1,4.37-4.46Zm22.15,18.85a14.3,14.3,0,0,1-3.71,10.12l-.1.1c11.6-1.3,20-9.5,13.84-17.42-3,4.51-5.6,5.38-10,7.19Z" style="fill:#fff"/><g id="aedda1b3-5045-4489-9173-7cbfd1dcca6f" data-name="bf5abbfe-2d8c-448e-8fc0-7993db86fb95"><path d="M290.44,175.63a5.57,5.57,0,0,1,2.69-4.35A20,20,0,0,0,303,154a19.39,19.39,0,0,0-38.77-.88c0,.29,0,.59,0,.88A20,20,0,0,0,274,171.28a5.57,5.57,0,0,1,2.69,4.35h8v2.28h-8v2.26h8v2.28h-8v2.3h13.69v-2.28H287v-2.28h3.42v-2.28H287v-2.28Zm3-35.66a17.14,17.14,0,0,1,7.26,14h-2.28a14.83,14.83,0,0,0-6.3-12.13Zm-5-2.4a15.26,15.26,0,0,1,2.46,1l-1,2a13.77,13.77,0,0,0-2.13-.82Z" style="fill:#fff"/><path d="M276.84,187a5.7,5.7,0,0,0,5.59,4.56h2.28a5.7,5.7,0,0,0,5.58-4.56Z" style="fill:#fff"/><path d="M282.43,125.45h2.28V130h-2.28Z" style="fill:#fff"/><path d="M262.6,134.61l1.61-1.61,3.22,3.22-1.61,1.61Z" style="fill:#fff"/><path d="M255.06,152.82h4.56v2.29h-4.56Z" style="fill:#fff"/><path d="M262.59,173.31l3.23-3.22,1.61,1.61-3.22,3.22Z" style="fill:#fff"/><path d="M299.68,171.7l1.62-1.61,3.22,3.22-1.61,1.62Z" style="fill:#fff"/><path d="M307.51,152.82h4.57v2.29h-4.57Z" style="fill:#fff"/><path d="M299.69,136.23l3.22-3.23,1.61,1.61-3.22,3.23Z" style="fill:#fff"/></g><path d="M145.39,54.37v6.15L122.32,71.91V65.47l16.27-8-16.27-8V43.06ZM99.22,65.47,83,57.47l16.27-8V43.06L76.14,54.44v6.15L99.22,71.91Zm20.33-31.1h-6L102,80.52h6Z" style="fill:#fff"/><path d="M247.58,66.35a4.66,4.66,0,0,0-4.39,3.1h-3.37v-24h3.4a4.66,4.66,0,1,0,0-3.11H238.3a1.56,1.56,0,0,0-1.56,1.56h0v12h-3.08l-6.34-6.33v-9.3h2.59a1.54,1.54,0,0,0,1.55-1.55,1.53,1.53,0,0,0-.26-.86l-4.14-6.21a1.55,1.55,0,0,0-2.15-.43,1.47,1.47,0,0,0-.43.43l-4.14,6.21a1.55,1.55,0,0,0,.43,2.15,1.53,1.53,0,0,0,.86.26h2.59v9.3l-6.34,6.33H214.8v-12a1.56,1.56,0,0,0-1.56-1.56h-4.65V40.79A1.54,1.54,0,0,0,207,39.24h-6.22a1.54,1.54,0,0,0-1.55,1.53V47a1.54,1.54,0,0,0,1.53,1.55H207A1.54,1.54,0,0,0,208.59,47h0V45.45h3.1v24h-3.1V67.9A1.54,1.54,0,0,0,207,66.35h-6.22a1.54,1.54,0,0,0-1.55,1.53v6.23a1.54,1.54,0,0,0,1.53,1.55H207a1.54,1.54,0,0,0,1.56-1.54h0V72.56h4.63A1.56,1.56,0,0,0,214.78,71V59h3.08l6.34,6.34V75.71l-3.88,5.82A1.55,1.55,0,0,0,221.61,84h8.28a1.56,1.56,0,0,0,1.56-1.54,1.52,1.52,0,0,0-.27-.88l-3.88-5.82V65.34L233.64,59h3.08V71a1.56,1.56,0,0,0,1.56,1.55h4.94a4.66,4.66,0,1,0,4.39-6.21Z" style="fill:#fff"/></svg>